HIERARCHY
ROOT hip
{
	OFFSET 0.000000 0.000000 0.000000 
	CHANNELS 6 Xposition Yposition Zposition Zrotation Yrotation Xrotation
	JOINT abdomen
	{
		OFFSET 0.000000 0.161626 -0.005715 
		CHANNELS 3 Zrotation Xrotation Yrotation
		JOINT chest
		{
			OFFSET 0.000000 0.091440 -0.003810 
			CHANNELS 3 Zrotation Xrotation Yrotation
			JOINT neck
			{
				OFFSET 0.000000 0.173355 -0.017145 
				CHANNELS 3 Zrotation Xrotation Yrotation
				JOINT head
				{
					OFFSET -0.001905 0.055245 0.009525 
					CHANNELS 3 Zrotation Xrotation Yrotation
					JOINT leftEye
					{
						OFFSET 0.032385 0.062865 0.062865 
						CHANNELS 3 Zrotation Xrotation Yrotation
						End Site
						{
							OFFSET 0.007812 0.000000 0.000000 
						}
					}
					JOINT rightEye
					{
						OFFSET -0.028575 0.062865 0.062865 
						CHANNELS 3 Zrotation Xrotation Yrotation
						End Site
						{
							OFFSET 0.007812 0.000000 0.000000 
						}
					}
				}
			}
			JOINT rCollar
			{
				OFFSET -0.020955 0.150495 -0.038100 
				CHANNELS 3 Zrotation Xrotation Yrotation
				JOINT rShldr
				{
					OFFSET -0.068580 -0.015240 0.011430 
					CHANNELS 3 Zrotation Xrotation Yrotation
					JOINT rForeArm
					{
						OFFSET -0.220111 -0.013371 0.003810 
						CHANNELS 3 Zrotation Xrotation Yrotation
						JOINT rHand
						{
							OFFSET -0.176468 0.006041 0.055245 
							CHANNELS 3 Zrotation Xrotation Yrotation
							JOINT rThumb1
							{
								OFFSET -0.009525 -0.003812 0.026670 
								CHANNELS 3 Zrotation Xrotation Yrotation
								JOINT rThumb2
								{
									OFFSET -0.026331 -0.004098 0.026670 
									CHANNELS 3 Zrotation Xrotation Yrotation
									End Site
									{
										OFFSET -0.013927 -0.009235 0.011176 
									}
								}
							}
							JOINT rIndex1
							{
								OFFSET -0.060621 0.007330 0.043815 
								CHANNELS 3 Zrotation Xrotation Yrotation
								JOINT rIndex2
								{
									OFFSET -0.019848 -0.006908 0.012230 
									CHANNELS 3 Zrotation Xrotation Yrotation
									End Site
									{
										OFFSET -0.012697 -0.001834 0.009102 
									}
								}
							}
							JOINT rMid1
							{
								OFFSET -0.064431 0.009235 0.026670 
								CHANNELS 3 Zrotation Xrotation Yrotation
								JOINT rMid2
								{
									OFFSET -0.024232 -0.004610 0.008318 
									CHANNELS 3 Zrotation Xrotation Yrotation
									End Site
									{
										OFFSET -0.019418 -0.002570 0.006542 
									}
								}
							}
							JOINT rRing1
							{
								OFFSET -0.068970 0.004271 0.011850 
								CHANNELS 3 Zrotation Xrotation Yrotation
								JOINT rRing2
								{
									OFFSET -0.020385 -0.006405 -0.000155 
									CHANNELS 3 Zrotation Xrotation Yrotation
									End Site
									{
										OFFSET -0.018269 -0.002297 0.001313 
									}
								}
							}
							JOINT rPinky1
							{
								OFFSET -0.064625 -0.000373 -0.003581 
								CHANNELS 3 Zrotation Xrotation Yrotation
								JOINT rPinky2
								{
									OFFSET -0.014276 -0.005058 -0.005476 
									CHANNELS 3 Zrotation Xrotation Yrotation
									End Site
									{
										OFFSET -0.013221 -0.004044 -0.004744 
									}
								}
							}
						}
					}
				}
			}
			JOINT lCollar
			{
				OFFSET 0.020955 0.150495 -0.038100 
				CHANNELS 3 Zrotation Xrotation Yrotation
				JOINT lShldr
				{
					OFFSET 0.068580 -0.015240 0.011430 
					CHANNELS 3 Zrotation Xrotation Yrotation
					JOINT lForeArm
					{
						OFFSET 0.220111 -0.013371 0.003810 
						CHANNELS 3 Zrotation Xrotation Yrotation
						JOINT lHand
						{
							OFFSET 0.176468 0.006041 0.055245 
							CHANNELS 3 Zrotation Xrotation Yrotation
							JOINT lThumb1
							{
								OFFSET 0.009525 -0.003812 0.026670 
								CHANNELS 3 Zrotation Xrotation Yrotation
								JOINT lThumb2
								{
									OFFSET 0.026331 -0.004098 0.026670 
									CHANNELS 3 Zrotation Xrotation Yrotation
									End Site
									{
										OFFSET 0.013927 -0.009235 0.011176 
									}
								}
							}
							JOINT lIndex1
							{
								OFFSET 0.060621 0.007330 0.043815 
								CHANNELS 3 Zrotation Xrotation Yrotation
								JOINT lIndex2
								{
									OFFSET 0.019848 -0.006908 0.012230 
									CHANNELS 3 Zrotation Xrotation Yrotation
									End Site
									{
										OFFSET 0.012697 -0.001834 0.009102 
									}
								}
							}
							JOINT lMid1
							{
								OFFSET 0.064431 0.009235 0.026670 
								CHANNELS 3 Zrotation Xrotation Yrotation
								JOINT lMid2
								{
									OFFSET 0.024232 -0.004610 0.008318 
									CHANNELS 3 Zrotation Xrotation Yrotation
									End Site
									{
										OFFSET 0.019418 -0.002570 0.006542 
									}
								}
							}
							JOINT lRing1
							{
								OFFSET 0.068970 0.004271 0.011850 
								CHANNELS 3 Zrotation Xrotation Yrotation
								JOINT lRing2
								{
									OFFSET 0.020385 -0.006405 -0.000155 
									CHANNELS 3 Zrotation Xrotation Yrotation
									End Site
									{
										OFFSET 0.018269 -0.002297 0.001313 
									}
								}
							}
							JOINT lPinky1
							{
								OFFSET 0.064625 -0.000373 -0.003581 
								CHANNELS 3 Zrotation Xrotation Yrotation
								JOINT lPinky2
								{
									OFFSET 0.014276 -0.005058 -0.005476 
									CHANNELS 3 Zrotation Xrotation Yrotation
									End Site
									{
										OFFSET 0.013221 -0.004044 -0.004744 
									}
								}
							}
						}
					}
				}
			}
		}
	}
	JOINT rButtock
	{
		OFFSET -0.068580 0.033991 0.009525 
		CHANNELS 3 Zrotation Xrotation Yrotation
		JOINT rThigh
		{
			OFFSET 0.000000 -0.013335 -0.017145 
			CHANNELS 3 Zrotation Xrotation Yrotation
			JOINT rShin
			{
				OFFSET 0.000000 -0.287655 0.005715 
				CHANNELS 3 Zrotation Xrotation Yrotation
				JOINT rFoot
				{
					OFFSET 0.005715 -0.352425 -0.040005 
					CHANNELS 3 Zrotation Xrotation Yrotation
					End Site
					{
						OFFSET -0.008766 -0.028903 0.094555 
					}
				}
			}
		}
	}
	JOINT lButtock
	{
		OFFSET 0.068580 0.033991 0.009525 
		CHANNELS 3 Zrotation Xrotation Yrotation
		JOINT lThigh
		{
			OFFSET 0.000000 -0.013335 -0.017145 
			CHANNELS 3 Zrotation Xrotation Yrotation
			JOINT lShin
			{
				OFFSET 0.000000 -0.287655 0.005715 
				CHANNELS 3 Zrotation Xrotation Yrotation
				JOINT lFoot
				{
					OFFSET -0.005715 -0.352425 -0.040005 
					CHANNELS 3 Zrotation Xrotation Yrotation
					End Site
					{
						OFFSET 0.008766 -0.028903 0.094555 
					}
				}
			}
		}
	}
}
MOTION
Frames: 4
Frame Time: 0.008333
0.039975 0.626686 -0.141878 -68.735901 -86.022697 -284.800995 7.287490 -6.201870 6.649490 -7.056260 -15.970100 0.788634 -2.573380 16.115000 -1.042860 6.189290 -13.435600 -1.851780 -0.000000 0.000000 0.000000 -0.000000 0.000000 0.000000 -0.000000 -0.000000 0.000000 33.721298 -34.656700 81.335999 -20.987200 -52.554901 111.765999 -4.561770 -50.189999 -9.711470 0.000000 -0.000000 -0.000000 0.000000 -0.000000 -0.000000 0.000000 -0.000000 -0.000000 7.730910 5.474880 0.417314 0.000000 -0.000000 -0.000000 2.905540 0.965183 0.102902 0.000000 -0.000000 -0.000000 10.278600 0.731801 0.025912 0.000000 -0.000000 -0.000000 2.221670 -0.733487 -0.208920 -0.000000 -0.000000 0.000000 -38.666401 -35.248299 29.517900 23.651400 -18.433100 -48.592602 0.372946 17.108700 -2.479340 -0.000000 -0.000000 0.000000 -0.000000 -0.000000 0.000000 -0.000000 -0.000000 0.000000 -7.730910 5.474880 -0.417314 -0.000000 -0.000000 0.000000 -2.905540 0.965183 -0.102902 -0.000000 -0.000000 0.000000 -10.278600 0.731801 -0.025912 -0.000000 -0.000000 0.000000 -2.221670 -0.733487 0.208920 -0.000000 0.000000 -0.000000 15.930400 -37.964600 6.150790 -0.334119 37.463100 -0.151314 -1.115450 -7.060850 -3.998050 0.000000 0.000000 0.000000 10.408600 -29.651899 9.803100 4.190130 77.925598 -4.356220 -0.337908 13.457000 5.653980 
0.030948 0.626028 -0.145072 -75.935699 -85.111900 -277.826996 8.440830 -5.448570 5.316710 -5.281990 -15.586200 0.676953 -1.940650 15.520700 -0.308863 4.516670 -14.090500 -0.496336 -0.000000 0.000000 0.000000 -0.000000 0.000000 0.000000 -0.000000 -0.000000 0.000000 33.450500 -33.417999 80.989998 -20.016500 -53.335999 114.174004 -3.944040 -47.741501 -8.898090 0.000000 -0.000000 -0.000000 0.000000 -0.000000 -0.000000 0.000000 -0.000000 -0.000000 7.730910 5.474880 0.417314 0.000000 -0.000000 -0.000000 2.905540 0.965183 0.102902 0.000000 -0.000000 -0.000000 10.278600 0.731801 0.025912 0.000000 -0.000000 -0.000000 2.221670 -0.733487 -0.208920 -0.000000 -0.000000 0.000000 -35.727402 -35.831001 34.368599 22.935900 -17.230301 -46.400299 0.365183 16.935101 -2.452640 -0.000000 -0.000000 0.000000 -0.000000 -0.000000 0.000000 -0.000000 -0.000000 0.000000 -7.730910 5.474880 -0.417314 -0.000000 -0.000000 0.000000 -2.905540 0.965183 -0.102902 -0.000000 -0.000000 0.000000 -10.278600 0.731801 -0.025912 -0.000000 -0.000000 0.000000 -2.221670 -0.733487 0.208920 -0.000000 0.000000 -0.000000 17.671499 -36.699100 5.751410 -0.315089 37.187599 -0.136980 -1.131070 -7.823020 -3.763810 0.000000 0.000000 0.000000 13.220200 -33.728401 10.374800 7.094980 82.250298 -7.266050 -0.343802 14.053700 5.206980 
0.022100 0.625156 -0.148241 -79.364998 -84.091499 -274.765015 9.011120 -4.520150 3.794050 -3.083490 -14.913000 0.557956 -1.325060 14.944500 0.436760 2.778730 -14.813300 0.816758 -0.000000 0.000000 0.000000 -0.000000 0.000000 0.000000 -0.000000 -0.000000 0.000000 32.978500 -31.954100 80.427002 -19.120001 -53.960300 116.316002 -3.310620 -44.895302 -8.036520 0.000000 -0.000000 -0.000000 0.000000 -0.000000 -0.000000 0.000000 -0.000000 -0.000000 7.730910 5.474880 0.417314 0.000000 -0.000000 -0.000000 2.905540 0.965183 0.102902 0.000000 -0.000000 -0.000000 10.278600 0.731801 0.025912 0.000000 -0.000000 -0.000000 2.221670 -0.733487 -0.208920 -0.000000 -0.000000 0.000000 -33.713902 -35.239498 38.808601 22.025400 -15.865800 -43.615299 0.382555 17.347500 -2.515750 -0.000000 -0.000000 0.000000 -0.000000 -0.000000 0.000000 -0.000000 -0.000000 0.000000 -7.730910 5.474880 -0.417314 -0.000000 -0.000000 0.000000 -2.905540 0.965183 -0.102902 -0.000000 -0.000000 0.000000 -10.278600 0.731801 -0.025912 -0.000000 -0.000000 0.000000 -2.221670 -0.733487 0.208920 -0.000000 0.000000 -0.000000 18.925200 -35.097500 5.136990 -0.288560 36.844700 -0.095356 -1.119930 -8.571620 -3.419630 0.000000 0.000000 0.000000 15.425000 -37.301300 10.350600 12.818000 85.456802 -13.005500 -0.341400 14.423900 4.894920 
0.012985 0.624430 -0.151027 -81.177696 -83.110703 -273.572998 9.162540 -3.476250 2.077790 -0.504399 -13.988400 0.433540 -0.728643 14.370700 1.193430 0.983598 -15.608700 2.106510 -0.000000 0.000000 0.000000 -0.000000 0.000000 0.000000 -0.000000 -0.000000 0.000000 32.364899 -30.271999 79.757698 -18.334200 -54.500099 118.126999 -2.712210 -41.689301 -7.171350 0.000000 -0.000000 -0.000000 0.000000 -0.000000 -0.000000 0.000000 -0.000000 -0.000000 7.730910 5.474880 0.417314 0.000000 -0.000000 -0.000000 2.905540 0.965183 0.102902 0.000000 -0.000000 -0.000000 10.278600 0.731801 0.025912 0.000000 -0.000000 -0.000000 2.221670 -0.733487 -0.208920 -0.000000 -0.000000 0.000000 -32.710800 -33.753799 42.814201 20.856100 -14.245500 -40.397598 0.420223 18.167400 -2.642550 -0.000000 -0.000000 0.000000 -0.000000 -0.000000 0.000000 -0.000000 -0.000000 0.000000 -7.730910 5.474880 -0.417314 -0.000000 -0.000000 0.000000 -2.905540 0.965183 -0.102902 -0.000000 -0.000000 0.000000 -10.278600 0.731801 -0.025912 -0.000000 -0.000000 0.000000 -2.221670 -0.733487 0.208920 -0.000000 0.000000 -0.000000 19.819901 -33.254398 4.325110 -0.254418 36.418999 -0.031075 -1.096070 -9.295920 -3.042290 0.000000 0.000000 0.000000 17.043301 -40.607399 9.766500 27.165001 87.712700 -27.382799 -0.318391 14.440300 4.648420 
